<svg xmlns="http://www.w3.org/2000/svg" viewBox="0 0 100 100">
  <defs>
    <linearGradient id="g1" x1="0%" y1="0%" x2="100%" y2="100%">
      <stop offset="0%" stop-color="#1a2744"/>
      <stop offset="45%" stop-color="#5a6e9a"/>
      <stop offset="100%" stop-color="#d4af37"/>
    </linearGradient>
  </defs>
  <polygon points="50,4 62,34 95,34 69,53 79,88 50,68 21,88 31,53 5,34 38,34"
    fill="none" stroke="url(#g1)" stroke-width="2.5" stroke-linejoin="round"/>
  <polygon points="50,11 60,37 91,37 67,54 76,86 50,67 24,86 33,54 9,37 40,37"
    fill="none" stroke="url(#g1)" stroke-width="1.8" stroke-linejoin="round" opacity="0.75"/>
  <polygon points="50,18 58,40 87,40 65,55 73,84 50,66 27,84 35,55 13,40 42,40"
    fill="none" stroke="url(#g1)" stroke-width="1.2" stroke-linejoin="round" opacity="0.5"/>
  <line x1="70" y1="6" x2="30" y2="94" stroke="#8a9ab5" stroke-width="1.5" opacity="0.55"/>
</svg>
